<svg version="1.1" id="Layer_1" xmlns="http://www.w3.org/2000/svg" xmlns:xlink="http://www.w3.org/1999/xlink" x="0px" y="0px"
	 width="100%" viewBox="0 0 408 112" enable-background="new 0 0 408 112" xml:space="preserve">
<path fill="#FDFEFE" opacity="1.000000" stroke="none" 
	d="
M265.000000,113.000000 
	C176.666687,113.000000 88.833374,113.000000 1.000047,113.000000 
	C1.000031,75.666695 1.000031,38.333393 1.000016,1.000067 
	C136.999939,1.000045 272.999878,1.000045 408.999878,1.000022 
	C408.999908,38.333263 408.999908,75.666527 408.999939,112.999893 
	C361.166656,113.000000 313.333344,113.000000 265.000000,113.000000 
M140.498032,90.974167 
	C140.498032,90.974167 140.946243,90.799484 141.642242,90.782005 
	C143.528580,88.545731 145.414932,86.309456 148.103256,83.122437 
	C140.803223,83.122437 135.392075,83.122437 129.161270,83.009079 
	C124.096245,82.834946 123.070343,81.472252 121.709602,72.749329 
	C130.824875,72.749329 139.874237,72.749329 150.265930,72.749329 
	C148.422897,67.050194 147.778519,61.522678 145.040283,57.378716 
	C140.367508,50.307053 132.885513,49.166042 125.142090,51.927250 
	C117.712181,54.576660 113.219566,59.885555 112.269417,67.987099 
	C111.014862,78.684044 115.226952,88.025070 123.408257,90.174347 
	C128.045120,91.392479 133.148148,90.836082 138.710800,91.212860 
	C139.147171,91.115585 139.583542,91.018311 140.498032,90.974167 
M309.199585,22.877943 
	C307.315063,22.385834 305.430511,21.893723 303.300415,21.337482 
	C303.300415,24.629145 303.300415,27.665909 303.300415,30.830471 
	C305.078888,30.830471 306.546631,30.830471 308.936554,30.948101 
	C312.851868,30.948101 316.767181,30.948101 319.926147,30.948101 
	C321.013000,28.496143 321.781158,26.763189 322.549133,25.030592 
	C323.920319,27.569628 324.739014,29.085655 325.557739,30.601685 
	C325.930603,30.391319 326.303467,30.180954 326.676331,29.970587 
	C326.676331,27.089987 326.676331,24.209387 326.676331,20.241901 
	C320.776672,21.169418 315.362335,22.020638 309.199585,22.877943 
M96.226059,52.952332 
	C93.241989,52.354145 90.257919,51.755959 87.304688,51.163956 
	C87.304688,64.694717 87.304688,77.758415 87.304688,90.697426 
	C90.034264,90.697426 92.452965,90.697426 94.921471,90.697426 
	C95.018387,89.244141 95.029732,88.080437 95.182816,86.935684 
	C96.428825,77.617638 97.701347,68.303123 99.749908,58.842087 
	C102.759186,58.171062 105.768471,57.500038 108.795380,56.825085 
	C108.795380,54.842762 108.795380,53.093761 108.795380,50.070225 
	C104.557152,51.137394 100.784828,52.087246 96.226059,52.952332 
M265.580017,55.554173 
	C265.580017,55.554173 266.035767,55.597179 265.909760,56.335579 
	C263.686340,61.003510 258.376129,65.272339 264.322815,71.640358 
	C269.999359,71.798248 273.183105,67.977463 273.182098,60.201260 
	C272.890594,55.232708 269.949463,52.300575 265.304474,52.237488 
	C257.346344,52.129402 249.377808,52.787914 240.990280,53.142429 
	C240.990280,63.372860 240.989990,73.136009 240.990372,82.899162 
	C240.990646,90.216866 241.288330,90.580589 248.918472,92.246994 
	C249.285614,86.928642 249.353516,81.615906 250.096375,76.399284 
	C250.842545,71.159233 249.382736,64.993286 254.487823,61.216225 
	C257.723022,58.822601 261.586792,57.278503 265.580017,55.554173 
M333.803894,82.004318 
	C336.164856,81.343521 338.525787,80.682724 340.975800,80.783546 
	C342.336487,87.172729 345.850983,90.782707 352.590240,90.899300 
	C360.598022,91.037819 368.622620,90.202477 377.127838,89.763985 
	C377.127838,81.030220 377.829132,71.694992 376.925140,62.517891 
	C376.068939,53.825752 371.677368,50.703247 363.100861,50.949123 
	C359.204681,51.060814 355.332642,52.014973 351.355713,52.600811 
	C351.355713,50.160568 351.355713,47.765026 351.355713,44.924591 
	C360.629913,44.924591 369.560974,44.924591 378.630920,44.924591 
	C378.630920,42.756622 378.630920,41.057934 378.630920,38.998631 
	C376.300964,38.998631 374.326385,38.998631 372.351837,38.998631 
	C308.044464,38.998631 243.737076,39.013523 179.429749,38.958324 
	C175.903885,38.955296 171.450546,40.690208 169.959793,35.180130 
	C169.892075,34.929829 168.718948,34.978603 168.561401,34.365036 
	C170.579956,33.857132 172.598511,33.349228 174.785904,32.798840 
	C174.253159,30.164814 173.806824,27.958015 173.333115,25.615862 
	C174.439835,25.197947 175.439148,24.820591 176.271973,24.506102 
	C176.202637,18.375137 172.113297,17.629770 166.897781,17.247063 
	C166.252625,23.217062 165.622223,29.050625 164.194229,35.051693 
	C163.538605,36.933052 162.882980,38.814407 162.184906,40.817593 
	C160.642532,40.961334 159.032318,41.111397 157.388733,41.264572 
	C157.388733,43.297634 157.388733,45.010094 157.388733,46.728752 
	C159.365631,46.954491 160.969025,47.137577 162.998657,47.369339 
	C162.998657,58.560406 163.361786,69.539368 162.853348,80.477829 
	C162.577835,86.405052 164.615829,89.468323 170.936646,90.491875 
	C171.658905,84.535110 172.380936,78.580276 173.215775,71.695068 
	C177.634872,77.941994 181.433868,83.520073 185.504272,88.892532 
	C186.327103,89.978577 188.220383,90.858047 189.537949,90.757339 
	C190.451981,90.687477 191.763199,88.852104 191.934586,87.666443 
	C192.188873,85.907173 192.177689,83.627403 191.253922,82.264160 
	C187.430084,76.621162 183.189621,71.262108 179.164230,65.753433 
	C176.768555,62.475010 177.575455,59.725437 181.341690,58.396832 
	C183.028564,57.801750 184.832458,57.538391 186.583267,57.124496 
	C186.460861,57.559162 186.338455,57.993832 186.216064,58.428497 
	C188.888351,59.457760 191.560654,60.487022 194.608505,61.660938 
	C195.412384,55.981827 194.549316,52.387119 190.252731,49.698772 
	C191.603897,48.798138 192.873749,47.325851 194.323700,47.119587 
	C197.077087,46.727898 199.933594,47.060993 202.780319,47.812683 
	C202.801910,48.531246 202.823517,49.249809 202.428970,50.627197 
	C201.975220,54.591759 201.521469,58.556320 201.035355,62.803566 
	C203.633759,62.284935 205.397949,61.932816 207.078873,62.437447 
	C207.050735,63.286652 207.022614,64.135857 206.380096,65.309036 
	C204.475586,66.574242 202.251755,67.539810 200.728714,69.162964 
	C196.763336,73.388908 195.899429,80.150970 198.313843,84.956345 
	C200.606384,89.519157 206.928802,92.312248 213.323196,91.608955 
	C219.682861,90.909477 226.044739,90.229843 233.869568,89.383087 
	C233.869568,82.620026 234.161240,74.665115 233.794174,66.740715 
	C233.356201,57.285858 228.821060,51.438900 221.750137,51.016739 
	C217.614716,50.769840 213.425003,51.432255 209.150146,51.692265 
	C209.059540,50.297806 208.952408,48.649227 209.058365,46.173111 
	C210.701630,45.782536 212.344238,45.054466 213.988281,45.051189 
	C247.296036,44.984745 280.603973,45.001415 313.911865,45.001431 
	C315.508972,45.001434 317.106049,45.001431 320.267487,45.001431 
	C318.840454,48.565937 318.418610,52.572598 316.732758,53.203880 
	C313.422913,54.443310 309.368744,54.206131 305.698975,53.831615 
	C301.932007,53.447166 298.289215,51.980492 294.533325,51.323387 
	C287.895874,50.162144 278.614807,56.233513 276.697144,62.772533 
	C273.486542,73.720299 283.213196,88.156937 295.713257,89.730675 
	C294.227173,87.705673 292.883118,86.307503 292.051941,84.651863 
	C290.293182,81.148552 288.010529,77.636574 287.416046,73.894127 
	C286.775604,69.862068 286.752319,64.863060 291.241760,62.563671 
	C294.630127,60.828236 298.630920,60.288559 302.672791,59.126495 
	C302.400208,61.881016 302.248962,64.012436 301.969330,66.126869 
	C300.968414,73.694824 300.951965,73.692650 307.180237,74.398155 
	C311.507050,69.358688 315.248444,65.001053 319.903442,60.826927 
	C323.486908,60.826927 327.070374,60.826927 330.568665,60.826927 
	C331.693237,74.476135 328.714478,77.309753 319.077637,81.116943 
	C314.977203,82.736862 314.262085,85.591934 317.045471,88.552124 
	C319.715393,91.391655 324.447662,91.625900 327.273590,88.797058 
	C329.363434,86.705048 331.125671,84.285759 333.803894,82.004318 
M19.009007,68.739151 
	C19.617411,68.162148 20.217907,67.093147 20.835430,67.083221 
	C28.104120,66.966354 35.375362,67.008148 43.078743,67.008148 
	C43.078743,75.225128 43.078743,82.961723 43.078743,90.713943 
	C45.924828,90.713943 48.320065,90.713943 50.716187,90.713943 
	C50.716187,72.705177 50.716187,54.982647 50.716187,37.311440 
	C48.028477,37.311440 45.632179,37.311440 42.798782,37.311440 
	C42.798782,45.347057 42.798782,53.081158 42.798782,60.656921 
	C34.615078,60.656921 26.888174,60.656921 18.737606,60.656921 
	C18.737606,52.575424 18.737606,44.832481 18.737606,37.199234 
	C16.013796,37.199234 13.728942,37.199234 11.224909,37.199234 
	C11.224909,55.118980 11.224909,72.841049 11.224909,90.775375 
	C13.808584,90.775375 16.202477,90.775375 18.999977,90.775375 
	C18.999977,83.606819 18.999977,76.653946 19.009007,68.739151 
M76.553627,78.768028 
	C76.702202,72.174255 77.146957,65.562164 76.741165,59.002693 
	C76.663101,57.740944 73.298744,55.879543 71.357193,55.755608 
	C69.301628,55.624405 65.378731,57.083435 65.289162,58.110947 
	C64.427444,67.996407 64.100166,77.962311 68.271042,87.352058 
	C68.620399,88.138550 70.061325,88.952774 70.910561,88.871437 
	C71.912331,88.775467 73.260002,87.927925 73.686806,87.036964 
	C74.818779,84.673889 75.535667,82.111984 76.553627,78.768028 
M75.711617,38.652794 
	C73.286629,38.149513 70.879562,37.360722 68.432632,37.207214 
	C64.358284,36.951607 62.433655,41.259903 64.191673,47.376431 
	C64.673950,49.054367 66.381042,51.283882 67.861824,51.579704 
	C70.781807,52.163044 74.003647,54.563240 77.008812,51.126842 
	C80.837112,46.749199 77.824173,42.959190 75.711617,38.652794 
M278.654480,30.715223 
	C278.654480,27.621593 278.654480,24.527962 278.654480,21.495605 
	C276.332245,21.054667 274.011444,21.130497 272.238586,20.182064 
	C266.563324,17.145914 263.787994,18.392988 262.354248,25.242016 
	C263.639709,25.242016 264.891998,25.242016 266.163910,25.242016 
	C265.822449,29.330311 268.699341,32.951317 272.319489,32.778301 
	C274.250092,32.686035 276.144012,31.827288 278.654480,30.715223 
M183.874039,28.380169 
	C185.298599,33.647129 186.984177,34.184929 196.432312,32.412464 
	C196.432312,28.003838 196.432312,23.617569 196.432312,19.231298 
	C193.565323,25.522282 188.744156,21.211653 184.687134,21.541109 
	C184.366791,23.693584 184.081314,25.611845 183.874039,28.380169 
M368.815979,30.635925 
	C370.166718,27.679020 371.517456,24.722113 373.074890,21.312695 
	C368.735718,21.312695 365.065125,21.312695 361.222778,21.312695 
	C361.061218,23.892710 360.919189,26.160934 360.691986,29.789511 
	C358.333801,28.359747 356.662354,27.346344 355.251099,26.490705 
	C355.251099,28.306215 355.251099,30.404020 355.251099,33.050739 
	C359.753174,32.322762 363.923279,31.648462 368.815979,30.635925 
M344.042999,30.911289 
	C351.855194,31.180454 351.855194,31.180454 352.541290,22.516109 
	C349.074188,22.277729 345.595337,22.038542 342.116516,21.799355 
	C342.504974,24.723497 342.893433,27.647640 344.042999,30.911289 
M213.436218,20.974024 
	C212.551422,24.085575 211.666641,27.197128 210.699951,30.596659 
	C213.814560,30.596659 216.309357,30.596659 219.014618,30.596659 
	C219.014618,28.376421 219.014618,26.572802 219.014618,24.769184 
	C219.014618,22.898542 219.014618,21.027901 219.014618,18.411139 
	C216.708450,19.374908 215.388672,19.926456 213.436218,20.974024 
M296.370209,90.481720 
	C296.370209,90.481720 296.446136,90.456169 296.370209,90.481720 
z"/>
<path fill="#5EBFE4" opacity="1.000000" stroke="none" 
	d="
M168.060669,34.888084 
	C168.718948,34.978603 169.892075,34.929829 169.959793,35.180130 
	C171.450546,40.690208 175.903885,38.955296 179.429749,38.958324 
	C243.737076,39.013523 308.044464,38.998631 372.351837,38.998631 
	C374.326385,38.998631 376.300964,38.998631 378.630920,38.998631 
	C378.630920,41.057934 378.630920,42.756622 378.630920,44.924591 
	C369.560974,44.924591 360.629913,44.924591 351.355713,44.924591 
	C351.355713,47.765026 351.355713,50.160568 351.355713,52.600811 
	C355.332642,52.014973 359.204681,51.060814 363.100861,50.949123 
	C371.677368,50.703247 376.068939,53.825752 376.925140,62.517891 
	C377.829132,71.694992 377.127838,81.030220 377.127838,89.763985 
	C368.622620,90.202477 360.598022,91.037819 352.590240,90.899300 
	C345.850983,90.782707 342.336487,87.172729 341.009338,80.020569 
	C341.362396,77.800011 341.620605,76.325745 342.011810,74.887657 
	C343.911469,67.904839 346.913727,65.917824 354.113190,65.883087 
	C358.835938,65.860313 363.555206,65.115623 368.292816,64.692749 
	C367.172882,59.050343 367.172943,59.034431 362.057922,59.012257 
	C357.165192,58.991043 352.272278,59.007675 346.820923,59.007675 
	C346.820923,55.219074 346.820923,50.306728 346.820923,45.281296 
	C339.368134,45.281296 332.454437,45.281296 325.053528,45.281296 
	C325.053528,48.338589 325.053528,51.121899 324.846039,54.198250 
	C322.441162,56.253262 317.968018,55.925659 318.989807,60.643417 
	C315.248444,65.001053 311.507050,69.358688 307.180237,74.398155 
	C300.951965,73.692650 300.968414,73.694824 301.969330,66.126869 
	C302.248962,64.012436 302.400208,61.881016 302.672791,59.126495 
	C298.630920,60.288559 294.630127,60.828236 291.241760,62.563671 
	C286.752319,64.863060 286.775604,69.862068 287.416046,73.894127 
	C288.010529,77.636574 290.293182,81.148552 292.051941,84.651863 
	C292.883118,86.307503 294.227173,87.705673 295.713257,89.730675 
	C283.213196,88.156937 273.486542,73.720299 276.697144,62.772533 
	C278.614807,56.233513 287.895874,50.162144 294.533325,51.323387 
	C298.289215,51.980492 301.932007,53.447166 305.698975,53.831615 
	C309.368744,54.206131 313.422913,54.443310 316.732758,53.203880 
	C318.418610,52.572598 318.840454,48.565937 320.267487,45.001431 
	C317.106049,45.001431 315.508972,45.001434 313.911865,45.001431 
	C280.603973,45.001415 247.296036,44.984745 213.988281,45.051189 
	C212.344238,45.054466 210.701630,45.782536 208.594452,46.593067 
	C206.368729,47.998138 204.606934,48.983253 202.845123,49.968372 
	C202.823517,49.249809 202.801910,48.531246 202.800873,47.033234 
	C199.870697,45.834290 196.926651,45.120388 193.967880,45.052887 
	C186.398880,44.880215 178.823303,44.995300 171.233154,44.995300 
	C171.233154,48.644886 171.233154,51.407959 171.233154,53.432838 
	C177.652969,52.395138 183.931946,51.380203 190.210922,50.365265 
	C194.549316,52.387119 195.412384,55.981827 194.608505,61.660938 
	C191.560654,60.487022 188.888351,59.457760 186.216064,58.428497 
	C186.338455,57.993832 186.460861,57.559162 186.583267,57.124496 
	C184.832458,57.538391 183.028564,57.801750 181.341690,58.396832 
	C177.575455,59.725437 176.768555,62.475010 179.164230,65.753433 
	C183.189621,71.262108 187.430084,76.621162 191.253922,82.264160 
	C192.177689,83.627403 192.188873,85.907173 191.934586,87.666443 
	C191.763199,88.852104 190.451981,90.687477 189.537949,90.757339 
	C188.220383,90.858047 186.327103,89.978577 185.504272,88.892532 
	C181.433868,83.520073 177.634872,77.941994 173.215775,71.695068 
	C172.380936,78.580276 171.658905,84.535110 170.936646,90.491875 
	C164.615829,89.468323 162.577835,86.405052 162.853348,80.477829 
	C163.361786,69.539368 162.998657,58.560406 162.998657,47.369339 
	C160.969025,47.137577 159.365631,46.954491 157.388733,46.728752 
	C157.388733,45.010094 157.388733,43.297634 157.388733,41.264572 
	C159.032318,41.111397 160.642532,40.961334 162.184906,40.817593 
	C162.882980,38.814407 163.538605,36.933052 164.974670,35.012821 
	C166.523636,34.945328 167.292145,34.916706 168.060669,34.888084 
M346.650818,79.399185 
	C346.190887,81.133781 345.730957,82.868378 345.246124,84.696808 
	C352.925140,85.697723 359.932373,84.918282 366.195343,80.777519 
	C367.307068,80.042496 368.500061,78.131874 368.303314,76.998993 
	C367.944550,74.933746 367.063751,71.999847 365.531128,71.280167 
	C361.171478,69.232956 349.334747,74.367661 346.650818,79.399185 
z"/>
<path fill="#3E3D3E" opacity="1.000000" stroke="none" 
	d="
M19.004492,69.220108 
	C18.999977,76.653946 18.999977,83.606819 18.999977,90.775375 
	C16.202477,90.775375 13.808584,90.775375 11.224909,90.775375 
	C11.224909,72.841049 11.224909,55.118980 11.224909,37.199234 
	C13.728942,37.199234 16.013796,37.199234 18.737606,37.199234 
	C18.737606,44.832481 18.737606,52.575424 18.737606,60.656921 
	C26.888174,60.656921 34.615078,60.656921 42.798782,60.656921 
	C42.798782,53.081158 42.798782,45.347057 42.798782,37.311440 
	C45.632179,37.311440 48.028477,37.311440 50.716187,37.311440 
	C50.716187,54.982647 50.716187,72.705177 50.716187,90.713943 
	C48.320065,90.713943 45.924828,90.713943 43.078743,90.713943 
	C43.078743,82.961723 43.078743,75.225128 43.078743,67.008148 
	C35.375362,67.008148 28.104120,66.966354 20.835430,67.083221 
	C20.217907,67.093147 19.617411,68.162148 19.004492,69.220108 
z"/>
<path fill="#5EBDE4" opacity="1.000000" stroke="none" 
	d="
M202.637054,50.297783 
	C204.606934,48.983253 206.368729,47.998138 208.487915,47.006836 
	C208.952408,48.649227 209.059540,50.297806 209.150146,51.692265 
	C213.425003,51.432255 217.614716,50.769840 221.750137,51.016739 
	C228.821060,51.438900 233.356201,57.285858 233.794174,66.740715 
	C234.161240,74.665115 233.869568,82.620026 233.869568,89.383087 
	C226.044739,90.229843 219.682861,90.909477 213.323196,91.608955 
	C206.928802,92.312248 200.606384,89.519157 198.313843,84.956345 
	C195.899429,80.150970 196.763336,73.388908 200.728714,69.162964 
	C202.251755,67.539810 204.475586,66.574242 207.116623,65.195206 
	C214.050964,65.635689 220.248779,66.190002 227.417435,66.831139 
	C226.076263,63.795792 225.608414,60.893032 223.907318,59.348942 
	C221.730270,57.372803 209.512878,59.508602 207.162125,61.580696 
	C205.397949,61.932816 203.633759,62.284935 201.035355,62.803566 
	C201.521469,58.556320 201.975220,54.591759 202.637054,50.297783 
M204.442062,76.034241 
	C203.131500,78.727203 201.820953,81.420166 200.162109,84.828766 
	C205.580170,84.828766 209.725998,85.038406 213.841354,84.773926 
	C218.624847,84.466492 222.262299,82.036293 224.733917,77.861603 
	C227.094177,73.874977 226.150208,71.580177 221.488510,71.064804 
	C215.472015,70.399628 209.469925,70.259689 204.442062,76.034241 
z"/>
<path fill="#2F2D2E" opacity="1.000000" stroke="none" 
	d="
M138.041229,91.078903 
	C133.148148,90.836082 128.045120,91.392479 123.408257,90.174347 
	C115.226952,88.025070 111.014862,78.684044 112.269417,67.987099 
	C113.219566,59.885555 117.712181,54.576660 125.142090,51.927250 
	C132.885513,49.166042 140.367508,50.307053 145.040283,57.378716 
	C147.778519,61.522678 148.422897,67.050194 150.265930,72.749329 
	C139.874237,72.749329 130.824875,72.749329 121.709602,72.749329 
	C123.070343,81.472252 124.096245,82.834946 129.530182,83.396149 
	C129.017792,84.565102 128.136505,85.346985 126.529076,86.773117 
	C130.865219,88.394920 134.453217,89.736916 138.041229,91.078903 
M138.631744,67.018639 
	C139.198959,66.832153 139.766159,66.645668 140.333374,66.459183 
	C138.495483,63.723087 137.267654,59.772438 134.702606,58.484020 
	C127.673714,54.953419 123.821884,57.778900 121.867508,67.020325 
	C127.217339,67.020325 132.506210,67.020325 138.631744,67.018639 
z"/>
<path fill="#E7F6FB" opacity="1.000000" stroke="none" 
	d="
M325.053528,53.905209 
	C325.053528,51.121899 325.053528,48.338589 325.053528,45.281296 
	C332.454437,45.281296 339.368134,45.281296 346.820923,45.281296 
	C346.820923,50.306728 346.820923,55.219074 346.820923,59.007675 
	C352.272278,59.007675 357.165192,58.991043 362.057922,59.012257 
	C367.172943,59.034431 367.172882,59.050343 368.292816,64.692749 
	C363.555206,65.115623 358.835938,65.860313 354.113190,65.883087 
	C346.913727,65.917824 343.911469,67.904839 342.011810,74.887657 
	C341.620605,76.325745 341.362396,77.800011 340.964783,79.639755 
	C338.525787,80.682724 336.164856,81.343521 333.490814,81.661438 
	C341.950226,68.772888 338.468781,57.025505 325.053528,53.905209 
z"/>
<path fill="#5FBFE5" opacity="1.000000" stroke="none" 
	d="
M264.019257,70.957359 
	C258.376129,65.272339 263.686340,61.003510 265.889038,55.873375 
	C265.651886,55.230694 265.418671,55.211445 265.168640,55.353416 
	C261.586792,57.278503 257.723022,58.822601 254.487823,61.216225 
	C249.382736,64.993286 250.842545,71.159233 250.096375,76.399284 
	C249.353516,81.615906 249.285614,86.928642 248.918472,92.246994 
	C241.288330,90.580589 240.990646,90.216866 240.990372,82.899162 
	C240.989990,73.136009 240.990280,63.372860 240.990280,53.142429 
	C249.377808,52.787914 257.346344,52.129402 265.304474,52.237488 
	C269.949463,52.300575 272.890594,55.232708 272.785889,60.599075 
	C265.676727,61.020493 265.753601,66.749962 264.019257,70.957359 
z"/>
<path fill="#343334" opacity="1.000000" stroke="none" 
	d="
M98.965805,58.987541 
	C97.701347,68.303123 96.428825,77.617638 95.182816,86.935684 
	C95.029732,88.080437 95.018387,89.244141 94.921471,90.697426 
	C92.452965,90.697426 90.034264,90.697426 87.304688,90.697426 
	C87.304688,77.758415 87.304688,64.694717 87.304688,51.163956 
	C90.257919,51.755959 93.241989,52.354145 96.613831,53.401031 
	C97.656342,55.562336 98.311073,57.274940 98.965805,58.987541 
z"/>
<path fill="#60C0E5" opacity="1.000000" stroke="none" 
	d="
M324.846039,54.198250 
	C338.468781,57.025505 341.950226,68.772888 333.105804,81.665405 
	C331.125671,84.285759 329.363434,86.705048 327.273590,88.797058 
	C324.447662,91.625900 319.715393,91.391655 317.045471,88.552124 
	C314.262085,85.591934 314.977203,82.736862 319.077637,81.116943 
	C328.714478,77.309753 331.693237,74.476135 330.568665,60.826927 
	C327.070374,60.826927 323.486908,60.826927 319.446625,60.735168 
	C317.968018,55.925659 322.441162,56.253262 324.846039,54.198250 
z"/>
<path fill="#242223" opacity="1.000000" stroke="none" 
	d="
M76.485657,79.198608 
	C75.535667,82.111984 74.818779,84.673889 73.686806,87.036964 
	C73.260002,87.927925 71.912331,88.775467 70.910561,88.871437 
	C70.061325,88.952774 68.620399,88.138550 68.271042,87.352058 
	C64.100166,77.962311 64.427444,67.996407 65.289162,58.110947 
	C65.378731,57.083435 69.301628,55.624405 71.357193,55.755608 
	C73.298744,55.879543 76.663101,57.740944 76.741165,59.002693 
	C77.146957,65.562164 76.702202,72.174255 76.485657,79.198608 
z"/>
<path fill="#353334" opacity="1.000000" stroke="none" 
	d="
M76.072113,38.813545 
	C77.824173,42.959190 80.837112,46.749199 77.008812,51.126842 
	C74.003647,54.563240 70.781807,52.163044 67.861824,51.579704 
	C66.381042,51.283882 64.673950,49.054367 64.191673,47.376431 
	C62.433655,41.259903 64.358284,36.951607 68.432632,37.207214 
	C70.879562,37.360722 73.286629,38.149513 76.072113,38.813545 
z"/>
<path fill="#A2A2A2" opacity="1.000000" stroke="none" 
	d="
M278.354492,31.014853 
	C276.144012,31.827288 274.250092,32.686035 272.319489,32.778301 
	C268.699341,32.951317 265.822449,29.330311 266.163910,25.242016 
	C264.891998,25.242016 263.639709,25.242016 262.354248,25.242016 
	C263.787994,18.392988 266.563324,17.145914 272.238586,20.182064 
	C274.011444,21.130497 276.332245,21.054667 278.654480,21.495605 
	C278.654480,24.527962 278.654480,27.621593 278.354492,31.014853 
z"/>
<path fill="#D1ECF7" opacity="1.000000" stroke="none" 
	d="
M190.231827,50.032021 
	C183.931946,51.380203 177.652969,52.395138 171.233154,53.432838 
	C171.233154,51.407959 171.233154,48.644886 171.233154,44.995300 
	C178.823303,44.995300 186.398880,44.880215 193.967880,45.052887 
	C196.926651,45.120388 199.870697,45.834290 202.784363,46.673424 
	C199.933594,47.060993 197.077087,46.727898 194.323700,47.119587 
	C192.873749,47.325851 191.603897,48.798138 190.231827,50.032021 
z"/>
<path fill="#8C8C8C" opacity="1.000000" stroke="none" 
	d="
M309.947998,22.871857 
	C315.362335,22.020638 320.776672,21.169418 326.676331,20.241901 
	C326.676331,24.209387 326.676331,27.089987 326.676331,29.970587 
	C326.303467,30.180954 325.930603,30.391319 325.557739,30.601685 
	C324.739014,29.085655 323.920319,27.569628 322.549133,25.030592 
	C321.781158,26.763189 321.013000,28.496143 319.926147,30.948101 
	C316.767181,30.948101 312.851868,30.948101 308.478638,30.518440 
	C308.663177,27.683140 309.305573,25.277496 309.947998,22.871857 
z"/>
<path fill="#BBBCBC" opacity="1.000000" stroke="none" 
	d="
M168.311035,34.626560 
	C167.292145,34.916706 166.523636,34.945328 165.373474,34.929070 
	C165.622223,29.050625 166.252625,23.217062 166.897781,17.247063 
	C172.113297,17.629770 176.202637,18.375137 176.271973,24.506102 
	C175.439148,24.820591 174.439835,25.197947 173.333115,25.615862 
	C173.806824,27.958015 174.253159,30.164814 174.785904,32.798840 
	C172.598511,33.349228 170.579956,33.857132 168.311035,34.626560 
z"/>
<path fill="#A3A3A3" opacity="1.000000" stroke="none" 
	d="
M183.834930,27.955135 
	C184.081314,25.611845 184.366791,23.693584 184.687134,21.541109 
	C188.744156,21.211653 193.565323,25.522282 196.432312,19.231298 
	C196.432312,23.617569 196.432312,28.003838 196.432312,32.412464 
	C186.984177,34.184929 185.298599,33.647129 183.834930,27.955135 
z"/>
<path fill="#9E9D9D" opacity="1.000000" stroke="none" 
	d="
M368.454712,30.805044 
	C363.923279,31.648462 359.753174,32.322762 355.251099,33.050739 
	C355.251099,30.404020 355.251099,28.306215 355.251099,26.490705 
	C356.662354,27.346344 358.333801,28.359747 360.691986,29.789511 
	C360.919189,26.160934 361.061218,23.892710 361.222778,21.312695 
	C365.065125,21.312695 368.735718,21.312695 373.074890,21.312695 
	C371.517456,24.722113 370.166718,27.679020 368.454712,30.805044 
z"/>
<path fill="#D8F0F8" opacity="1.000000" stroke="none" 
	d="
M207.120499,62.009071 
	C209.512878,59.508602 221.730270,57.372803 223.907318,59.348942 
	C225.608414,60.893032 226.076263,63.795792 227.417435,66.831139 
	C220.248779,66.190002 214.050964,65.635689 207.423828,65.033218 
	C207.022614,64.135857 207.050735,63.286652 207.120499,62.009071 
z"/>
<path fill="#474646" opacity="1.000000" stroke="none" 
	d="
M138.376007,91.145882 
	C134.453217,89.736916 130.865219,88.394920 126.529076,86.773117 
	C128.136505,85.346985 129.017792,84.565102 129.940002,83.452827 
	C135.392075,83.122437 140.803223,83.122437 148.103256,83.122437 
	C145.414932,86.309456 143.528580,88.545731 141.193451,90.651665 
	C140.503098,90.654564 140.261505,90.787804 140.019913,90.921036 
	C139.583542,91.018311 139.147171,91.115585 138.376007,91.145882 
z"/>
<path fill="#A5A5A5" opacity="1.000000" stroke="none" 
	d="
M343.662445,30.741535 
	C342.893433,27.647640 342.504974,24.723497 342.116516,21.799355 
	C345.595337,22.038542 349.074188,22.277729 352.541290,22.516109 
	C351.855194,31.180454 351.855194,31.180454 343.662445,30.741535 
z"/>
<path fill="#242223" opacity="1.000000" stroke="none" 
	d="
M99.357857,58.914814 
	C98.311073,57.274940 97.656342,55.562336 97.007065,53.443417 
	C100.784828,52.087246 104.557152,51.137394 108.795380,50.070225 
	C108.795380,53.093761 108.795380,54.842762 108.795380,56.825085 
	C105.768471,57.500038 102.759186,58.171062 99.357857,58.914814 
z"/>
<path fill="#8C8C8C" opacity="1.000000" stroke="none" 
	d="
M213.752563,20.726013 
	C215.388672,19.926456 216.708450,19.374908 219.014618,18.411139 
	C219.014618,21.027901 219.014618,22.898542 219.014618,24.769184 
	C219.014618,26.572802 219.014618,28.376421 219.014618,30.596659 
	C216.309357,30.596659 213.814560,30.596659 210.699951,30.596659 
	C211.666641,27.197128 212.551422,24.085575 213.752563,20.726013 
z"/>
<path fill="#59BAE3" opacity="1.000000" stroke="none" 
	d="
M264.171021,71.298859 
	C265.753601,66.749962 265.676727,61.020493 272.794586,60.992184 
	C273.183105,67.977463 269.999359,71.798248 264.171021,71.298859 
z"/>
<path fill="#939393" opacity="1.000000" stroke="none" 
	d="
M309.573792,22.874897 
	C309.305573,25.277496 308.663177,27.683140 308.017578,30.459625 
	C306.546631,30.830471 305.078888,30.830471 303.300415,30.830471 
	C303.300415,27.665909 303.300415,24.629145 303.300415,21.337482 
	C305.430511,21.893723 307.315063,22.385834 309.573792,22.874897 
z"/>
<path fill="#74C8E7" opacity="1.000000" stroke="none" 
	d="
M265.374329,55.453796 
	C265.418671,55.211445 265.651886,55.230694 265.952026,55.504173 
	C266.035767,55.597179 265.580017,55.554173 265.374329,55.453796 
z"/>
<path fill="#2F2D2E" opacity="1.000000" stroke="none" 
	d="
M140.258972,90.947601 
	C140.261505,90.787804 140.503098,90.654564 140.845459,90.660400 
	C140.946243,90.799484 140.498032,90.974167 140.258972,90.947601 
z"/>
<path fill="#5EBFE4" opacity="1.000000" stroke="none" 
	d="
M296.408173,90.468948 
	C296.446136,90.456169 296.370209,90.481720 296.408173,90.468948 
z"/>
<path fill="#F2FAFD" opacity="1.000000" stroke="none" 
	d="
M346.812500,79.051819 
	C349.334747,74.367661 361.171478,69.232956 365.531128,71.280167 
	C367.063751,71.999847 367.944550,74.933746 368.303314,76.998993 
	C368.500061,78.131874 367.307068,80.042496 366.195343,80.777519 
	C359.932373,84.918282 352.925140,85.697723 345.246124,84.696808 
	C345.730957,82.868378 346.190887,81.133781 346.812500,79.051819 
z"/>
<path fill="#F3FAFD" opacity="1.000000" stroke="none" 
	d="
M204.741455,75.809090 
	C209.469925,70.259689 215.472015,70.399628 221.488510,71.064804 
	C226.150208,71.580177 227.094177,73.874977 224.733917,77.861603 
	C222.262299,82.036293 218.624847,84.466492 213.841354,84.773926 
	C209.725998,85.038406 205.580170,84.828766 200.162109,84.828766 
	C201.820953,81.420166 203.131500,78.727203 204.741455,75.809090 
z"/>
<path fill="#E8E8E8" opacity="1.000000" stroke="none" 
	d="
M138.213409,67.019485 
	C132.506210,67.020325 127.217339,67.020325 121.867508,67.020325 
	C123.821884,57.778900 127.673714,54.953419 134.702606,58.484020 
	C137.267654,59.772438 138.495483,63.723087 140.333374,66.459183 
	C139.766159,66.645668 139.198959,66.832153 138.213409,67.019485 
z"/>
</svg>